<svg xmlns="http://www.w3.org/2000/svg" xmlns:xlink="http://www.w3.org/1999/xlink" width="1000" zoomAndPan="magnify" viewBox="0 0 750 749.999995" height="1000" preserveAspectRatio="xMidYMid meet" version="1.0"><defs><g/><clipPath id="dfeb1ea182"><rect x="0" width="665" y="0" height="106"/></clipPath></defs><g transform="matrix(1, 0, 0, 1, 43, 322)"><g clip-path="url(#dfeb1ea182)"><g fill="#ffffff" fill-opacity="1"><g transform="translate(0.281607, 83.81236)"><g><path d="M 4.640625 -73 L 63.484375 -73 L 63.484375 -62.640625 L 45.21875 -62.640625 L 45.21875 -4.640625 L 52.1875 1.6875 L 63.390625 1.6875 L 63.390625 12.046875 L 40.25 12.046875 L 34.125 5.171875 L 28.09375 12.046875 L 4.859375 12.046875 L 4.859375 1.6875 L 16.15625 1.6875 L 23.140625 -4.640625 L 23.140625 -62.640625 L 4.640625 -62.640625 Z M 70.359375 -74.046875 L 92.4375 -74.046875 L 92.4375 -40.03125 L 102.15625 -40.03125 L 102.15625 -29.6875 L 92.4375 -29.6875 L 92.4375 12.046875 L 70.359375 12.046875 Z M 70.359375 -74.046875 "/></g></g></g><g fill="#ffffff" fill-opacity="1"><g transform="translate(105.923863, 83.81236)"><g><path d="M 97.078125 -41.515625 L 63.90625 -41.515625 L 63.90625 -36.546875 L 99.515625 -36.546875 L 99.515625 -26.203125 L 6.125 -26.203125 L 6.125 -36.546875 L 41.828125 -36.546875 L 41.828125 -41.515625 L 16.0625 -41.515625 L 8.453125 -48.171875 L 8.453125 -73 L 97.078125 -73 L 97.078125 -62.640625 L 30.53125 -62.640625 L 30.53125 -51.875 L 97.078125 -51.875 Z M 97.1875 2.4375 C 97.1875 4.476562 96.921875 6.113281 96.390625 7.34375 C 95.867188 8.570312 95.113281 9.535156 94.125 10.234375 C 93.132812 10.941406 91.898438 11.421875 90.421875 11.671875 C 88.941406 11.921875 87.253906 12.046875 85.359375 12.046875 L 20.390625 12.046875 C 17.640625 12.046875 15.472656 11.796875 13.890625 11.296875 C 12.304688 10.804688 11.109375 10.050781 10.296875 9.03125 C 9.484375 8.007812 8.988281 6.757812 8.8125 5.28125 C 8.644531 3.800781 8.5625 2.039062 8.5625 0 L 8.5625 -9.609375 C 8.5625 -11.585938 8.644531 -13.332031 8.8125 -14.84375 C 8.988281 -16.351562 9.484375 -17.617188 10.296875 -18.640625 C 11.109375 -19.660156 12.304688 -20.414062 13.890625 -20.90625 C 15.472656 -21.40625 17.640625 -21.65625 20.390625 -21.65625 L 85.359375 -21.65625 C 88.109375 -21.65625 90.273438 -21.40625 91.859375 -20.90625 C 93.441406 -20.414062 94.632812 -19.660156 95.4375 -18.640625 C 96.25 -17.617188 96.742188 -16.351562 96.921875 -14.84375 C 97.097656 -13.332031 97.1875 -11.585938 97.1875 -9.609375 Z M 30.640625 -0.953125 C 30.640625 0.0351562 30.796875 0.722656 31.109375 1.109375 C 31.429688 1.492188 32.082031 1.6875 33.0625 1.6875 L 72.6875 1.6875 C 73.664062 1.6875 74.3125 1.492188 74.625 1.109375 C 74.945312 0.722656 75.109375 0.0351562 75.109375 -0.953125 L 75.109375 -8.65625 C 75.109375 -9.644531 74.945312 -10.332031 74.625 -10.71875 C 74.3125 -11.101562 73.664062 -11.296875 72.6875 -11.296875 L 33.0625 -11.296875 C 32.082031 -11.296875 31.429688 -11.101562 31.109375 -10.71875 C 30.796875 -10.332031 30.640625 -9.644531 30.640625 -8.65625 Z M 30.640625 -0.953125 "/></g></g></g><g fill="#ffffff" fill-opacity="1"><g transform="translate(211.56612, 83.81236)"><g><path d="M 61.171875 -23.140625 C 61.171875 -20.878906 60.992188 -18.882812 60.640625 -17.15625 C 60.285156 -15.4375 59.613281 -14.015625 58.625 -12.890625 C 57.644531 -11.765625 56.273438 -10.914062 54.515625 -10.34375 C 52.753906 -9.78125 50.5 -9.5 47.75 -9.5 L 44.046875 -9.5 L 44.046875 1.578125 L 64.328125 1.578125 L 64.328125 11.9375 L 4.015625 11.9375 L 4.015625 1.578125 L 21.96875 1.578125 L 21.96875 -9.5 L 20.390625 -9.5 C 17.640625 -9.5 15.382812 -9.78125 13.625 -10.34375 C 11.863281 -10.914062 10.488281 -11.765625 9.5 -12.890625 C 8.519531 -14.015625 7.851562 -15.4375 7.5 -17.15625 C 7.144531 -18.882812 6.96875 -20.878906 6.96875 -23.140625 L 6.96875 -50.921875 C 6.96875 -52.046875 7.003906 -53.066406 7.078125 -53.984375 C 7.148438 -54.898438 7.289062 -55.742188 7.5 -56.515625 L 2.53125 -56.515625 L 2.53125 -66.875 L 23.5625 -66.875 L 23.5625 -76.171875 L 45.640625 -76.171875 L 45.640625 -66.875 L 65.609375 -66.875 L 65.609375 -56.515625 L 60.328125 -56.515625 C 60.890625 -54.960938 61.171875 -53.097656 61.171875 -50.921875 Z M 70.359375 -74.046875 L 92.4375 -74.046875 L 92.4375 -40.03125 L 102.15625 -40.03125 L 102.15625 -29.6875 L 92.4375 -29.6875 L 92.4375 12.046875 L 70.359375 12.046875 Z M 28 -22.5 C 28 -21.507812 28.15625 -20.820312 28.46875 -20.4375 C 28.789062 -20.050781 29.441406 -19.859375 30.421875 -19.859375 L 37.71875 -19.859375 C 38.695312 -19.859375 39.34375 -20.050781 39.65625 -20.4375 C 39.976562 -20.820312 40.140625 -21.507812 40.140625 -22.5 L 40.140625 -51.546875 C 40.140625 -52.535156 39.976562 -53.222656 39.65625 -53.609375 C 39.34375 -53.992188 38.695312 -54.1875 37.71875 -54.1875 L 30.421875 -54.1875 C 29.441406 -54.1875 28.789062 -53.992188 28.46875 -53.609375 C 28.15625 -53.222656 28 -52.535156 28 -51.546875 Z M 28 -22.5 "/></g></g></g><g fill="#ffffff" fill-opacity="1"><g transform="translate(317.208393, 83.81236)"><g/></g></g><g fill="#ffffff" fill-opacity="1"><g transform="translate(346.78821, 83.81236)"><g><path d="M 8.453125 -73 L 97.1875 -73 L 97.1875 -62.640625 L 85.046875 -62.640625 L 85.046875 -54.609375 L 82.078125 -51.96875 L 97.1875 -51.96875 L 97.1875 -41.625 L 63.90625 -41.625 L 63.90625 -36.546875 L 99.515625 -36.546875 L 99.515625 -26.203125 L 6.125 -26.203125 L 6.125 -36.546875 L 41.828125 -36.546875 L 41.828125 -41.625 L 8.453125 -41.625 L 8.453125 -51.96875 L 20.59375 -51.96875 L 20.59375 -62.640625 L 8.453125 -62.640625 Z M 8.453125 -21.65625 L 97.1875 -21.65625 L 97.1875 12.046875 L 75.109375 12.046875 L 75.109375 -11.296875 L 8.453125 -11.296875 Z M 39.828125 -51.96875 L 62.859375 -51.96875 L 62.859375 -62.640625 L 42.78125 -62.640625 L 42.78125 -54.609375 Z M 39.828125 -51.96875 "/></g></g></g><g fill="#ffffff" fill-opacity="1"><g transform="translate(452.430483, 83.81236)"><g><path d="M 4.859375 -36.765625 L 32.21875 -36.765625 L 39.09375 -44.578125 L 39.09375 -62.640625 L 4.859375 -62.640625 L 4.859375 -73 L 61.171875 -73 L 61.171875 -64.328125 L 75.640625 -64.328125 L 75.640625 -74.046875 L 97.71875 -74.046875 L 97.71875 -26.40625 L 75.640625 -26.40625 L 75.640625 -34.859375 L 58.953125 -34.859375 L 58.953125 -39.9375 L 47.21875 -26.40625 L 4.859375 -26.40625 Z M 4.859375 -21.65625 L 97.71875 -21.65625 L 97.71875 12.046875 L 75.640625 12.046875 L 75.640625 -11.296875 L 4.859375 -11.296875 Z M 61.171875 -45.21875 L 75.640625 -45.21875 L 75.640625 -53.984375 L 61.171875 -53.984375 Z M 61.171875 -45.21875 "/></g></g></g><g fill="#ffffff" fill-opacity="1"><g transform="translate(558.072723, 83.81236)"><g><path d="M 75.640625 -74.046875 L 97.71875 -74.046875 L 97.71875 12.046875 L 75.640625 12.046875 Z M 4.859375 1.6875 L 34.328125 1.6875 L 41.203125 -6.125 L 41.203125 -62.640625 L 4.859375 -62.640625 L 4.859375 -73 L 63.28125 -73 L 63.28125 -4.125 L 49.328125 12.046875 L 4.859375 12.046875 Z M 4.859375 1.6875 "/></g></g></g></g></g></svg>