<svg xmlns="http://www.w3.org/2000/svg" xmlns:xlink="http://www.w3.org/1999/xlink" width="1080" zoomAndPan="magnify" viewBox="0 0 810 149.999998" height="200" preserveAspectRatio="xMidYMid meet" version="1.0"><defs><g/><clipPath id="83f4641d0d"><rect x="0" width="786" y="0" height="68"/></clipPath></defs><g transform="matrix(1, 0, 0, 1, 12, 41)"><g clip-path="url(#83f4641d0d)"><g fill="#ffffff" fill-opacity="1"><g transform="translate(0.472458, 54.373121)"><g><path d="M 2.984375 -46.921875 L 40.8125 -46.921875 L 40.8125 -40.265625 L 29.0625 -40.265625 L 29.0625 -2.984375 L 33.546875 1.09375 L 40.75 1.09375 L 40.75 7.734375 L 25.875 7.734375 L 21.9375 3.328125 L 18.0625 7.734375 L 3.125 7.734375 L 3.125 1.09375 L 10.390625 1.09375 L 14.875 -2.984375 L 14.875 -40.265625 L 2.984375 -40.265625 Z M 45.21875 -47.609375 L 59.421875 -47.609375 L 59.421875 -25.734375 L 65.671875 -25.734375 L 65.671875 -19.078125 L 59.421875 -19.078125 L 59.421875 7.734375 L 45.21875 7.734375 Z M 45.21875 -47.609375 "/></g></g></g><g fill="#ffffff" fill-opacity="1"><g transform="translate(68.382811, 54.373121)"><g><path d="M 62.40625 -26.6875 L 41.078125 -26.6875 L 41.078125 -23.5 L 63.96875 -23.5 L 63.96875 -16.84375 L 3.9375 -16.84375 L 3.9375 -23.5 L 26.890625 -23.5 L 26.890625 -26.6875 L 10.328125 -26.6875 L 5.4375 -30.96875 L 5.4375 -46.921875 L 62.40625 -46.921875 L 62.40625 -40.265625 L 19.625 -40.265625 L 19.625 -33.34375 L 62.40625 -33.34375 Z M 62.46875 1.5625 C 62.46875 2.875 62.296875 3.925781 61.953125 4.71875 C 61.617188 5.507812 61.132812 6.128906 60.5 6.578125 C 59.863281 7.035156 59.070312 7.34375 58.125 7.5 C 57.175781 7.65625 56.09375 7.734375 54.875 7.734375 L 13.109375 7.734375 C 11.335938 7.734375 9.941406 7.578125 8.921875 7.265625 C 7.910156 6.953125 7.144531 6.46875 6.625 5.8125 C 6.101562 5.15625 5.785156 4.347656 5.671875 3.390625 C 5.554688 2.441406 5.5 1.3125 5.5 0 L 5.5 -6.171875 C 5.5 -7.441406 5.554688 -8.5625 5.671875 -9.53125 C 5.785156 -10.507812 6.101562 -11.328125 6.625 -11.984375 C 7.144531 -12.640625 7.910156 -13.125 8.921875 -13.4375 C 9.941406 -13.757812 11.335938 -13.921875 13.109375 -13.921875 L 54.875 -13.921875 C 56.632812 -13.921875 58.023438 -13.757812 59.046875 -13.4375 C 60.066406 -13.125 60.835938 -12.640625 61.359375 -11.984375 C 61.878906 -11.328125 62.191406 -10.507812 62.296875 -9.53125 C 62.410156 -8.5625 62.46875 -7.441406 62.46875 -6.171875 Z M 19.6875 -0.609375 C 19.6875 0.0234375 19.785156 0.46875 19.984375 0.71875 C 20.191406 0.96875 20.613281 1.09375 21.25 1.09375 L 46.71875 1.09375 C 47.351562 1.09375 47.769531 0.96875 47.96875 0.71875 C 48.175781 0.46875 48.28125 0.0234375 48.28125 -0.609375 L 48.28125 -5.5625 C 48.28125 -6.195312 48.175781 -6.640625 47.96875 -6.890625 C 47.769531 -7.140625 47.351562 -7.265625 46.71875 -7.265625 L 21.25 -7.265625 C 20.613281 -7.265625 20.191406 -7.140625 19.984375 -6.890625 C 19.785156 -6.640625 19.6875 -6.195312 19.6875 -5.5625 Z M 19.6875 -0.609375 "/></g></g></g><g fill="#ffffff" fill-opacity="1"><g transform="translate(136.293164, 54.373121)"><g><path d="M 39.3125 -14.875 C 39.3125 -13.425781 39.195312 -12.144531 38.96875 -11.03125 C 38.75 -9.925781 38.320312 -9.007812 37.6875 -8.28125 C 37.050781 -7.5625 36.164062 -7.019531 35.03125 -6.65625 C 33.90625 -6.289062 32.457031 -6.109375 30.6875 -6.109375 L 28.3125 -6.109375 L 28.3125 1.015625 L 41.359375 1.015625 L 41.359375 7.671875 L 2.578125 7.671875 L 2.578125 1.015625 L 14.125 1.015625 L 14.125 -6.109375 L 13.109375 -6.109375 C 11.335938 -6.109375 9.882812 -6.289062 8.75 -6.65625 C 7.625 -7.019531 6.742188 -7.5625 6.109375 -8.28125 C 5.472656 -9.007812 5.039062 -9.925781 4.8125 -11.03125 C 4.59375 -12.144531 4.484375 -13.425781 4.484375 -14.875 L 4.484375 -32.734375 C 4.484375 -33.453125 4.503906 -34.101562 4.546875 -34.6875 C 4.597656 -35.28125 4.691406 -35.828125 4.828125 -36.328125 L 1.625 -36.328125 L 1.625 -42.984375 L 15.140625 -42.984375 L 15.140625 -48.953125 L 29.328125 -48.953125 L 29.328125 -42.984375 L 42.171875 -42.984375 L 42.171875 -36.328125 L 38.78125 -36.328125 C 39.132812 -35.328125 39.3125 -34.128906 39.3125 -32.734375 Z M 45.21875 -47.609375 L 59.421875 -47.609375 L 59.421875 -25.734375 L 65.671875 -25.734375 L 65.671875 -19.078125 L 59.421875 -19.078125 L 59.421875 7.734375 L 45.21875 7.734375 Z M 18 -14.46875 C 18 -13.832031 18.097656 -13.390625 18.296875 -13.140625 C 18.503906 -12.890625 18.925781 -12.765625 19.5625 -12.765625 L 24.25 -12.765625 C 24.875 -12.765625 25.285156 -12.890625 25.484375 -13.140625 C 25.691406 -13.390625 25.796875 -13.832031 25.796875 -14.46875 L 25.796875 -33.140625 C 25.796875 -33.773438 25.691406 -34.210938 25.484375 -34.453125 C 25.285156 -34.703125 24.875 -34.828125 24.25 -34.828125 L 19.5625 -34.828125 C 18.925781 -34.828125 18.503906 -34.703125 18.296875 -34.453125 C 18.097656 -34.210938 18 -33.773438 18 -33.140625 Z M 18 -14.46875 "/></g></g></g><g fill="#ffffff" fill-opacity="1"><g transform="translate(204.203516, 54.373121)"><g><path d="M 62.46875 -11.6875 L 41.078125 -11.6875 L 41.078125 1.09375 L 63.96875 1.09375 L 63.96875 7.734375 L 3.9375 7.734375 L 3.9375 1.09375 L 26.890625 1.09375 L 26.890625 -11.6875 L 11.0625 -11.6875 L 5.5 -16.96875 L 5.5 -32.859375 L 48.28125 -32.859375 L 48.28125 -40.265625 L 5.5 -40.265625 L 5.5 -46.921875 L 62.46875 -46.921875 L 62.46875 -26.21875 L 19.6875 -26.21875 L 19.6875 -18.328125 L 62.46875 -18.328125 Z M 62.46875 -11.6875 "/></g></g></g><g fill="#ffffff" fill-opacity="1"><g transform="translate(272.113869, 54.373121)"><g/></g></g><g fill="#ffffff" fill-opacity="1"><g transform="translate(291.128754, 54.373121)"><g><path d="M 48.625 -47.609375 L 62.8125 -47.609375 L 62.8125 7.734375 L 48.625 7.734375 Z M 3.125 1.09375 L 11.0625 1.09375 L 15.546875 -2.984375 L 15.546875 -46.921875 L 29.75 -46.921875 L 29.75 -2.984375 L 34.21875 1.09375 L 42.109375 1.09375 L 42.109375 7.734375 L 26.546875 7.734375 L 22.609375 3.328125 L 18.734375 7.734375 L 3.125 7.734375 Z M 3.125 1.09375 "/></g></g></g><g fill="#ffffff" fill-opacity="1"><g transform="translate(359.03912, 54.373121)"><g><path d="M 3.125 -23.625 L 20.03125 -23.625 L 24.453125 -28.65625 L 24.453125 -40.265625 L 3.125 -40.265625 L 3.125 -46.921875 L 38.640625 -46.921875 L 38.640625 -27.359375 L 29.671875 -16.96875 L 3.125 -16.96875 Z M 45.21875 -47.609375 L 59.421875 -47.609375 L 59.421875 -35.859375 L 65.671875 -35.859375 L 65.671875 -29.203125 L 59.421875 -29.203125 L 59.421875 -9.78125 L 45.21875 -9.78125 Z M 60.09375 7.734375 L 10.390625 7.734375 L 3.125 1.09375 L 3.125 -13.921875 L 17.3125 -13.921875 L 17.3125 1.09375 L 60.09375 1.09375 Z M 60.09375 7.734375 "/></g></g></g><g fill="#ffffff" fill-opacity="1"><g transform="translate(426.949485, 54.373121)"><g><path d="M 3.9375 -26.421875 L 63.96875 -26.421875 L 63.96875 -19.765625 L 3.9375 -19.765625 Z M 63.15625 7.734375 L 12.90625 7.734375 L 5.4375 0.953125 L 5.4375 -7.9375 L 48.28125 -7.9375 L 48.28125 -10.25 L 5.4375 -10.25 L 5.4375 -16.90625 L 62.46875 -16.90625 L 62.46875 -1.359375 L 19.625 -1.359375 L 19.625 1.09375 L 63.15625 1.09375 Z M 62.46875 -36.875 C 62.46875 -35.5625 62.390625 -34.425781 62.234375 -33.46875 C 62.078125 -32.519531 61.726562 -31.71875 61.1875 -31.0625 C 60.644531 -30.40625 59.835938 -29.914062 58.765625 -29.59375 C 57.703125 -29.28125 56.289062 -29.125 54.53125 -29.125 L 13.375 -29.125 C 11.613281 -29.125 10.195312 -29.28125 9.125 -29.59375 C 8.0625 -29.914062 7.257812 -30.40625 6.71875 -31.0625 C 6.175781 -31.71875 5.828125 -32.519531 5.671875 -33.46875 C 5.515625 -34.425781 5.4375 -35.5625 5.4375 -36.875 L 5.4375 -39.1875 C 5.4375 -40.445312 5.515625 -41.5625 5.671875 -42.53125 C 5.828125 -43.507812 6.175781 -44.328125 6.71875 -44.984375 C 7.257812 -45.640625 8.0625 -46.125 9.125 -46.4375 C 10.195312 -46.757812 11.613281 -46.921875 13.375 -46.921875 L 54.53125 -46.921875 C 56.289062 -46.921875 57.703125 -46.757812 58.765625 -46.4375 C 59.835938 -46.125 60.644531 -45.640625 61.1875 -44.984375 C 61.726562 -44.328125 62.078125 -43.507812 62.234375 -42.53125 C 62.390625 -41.5625 62.46875 -40.445312 62.46875 -39.1875 Z M 19.625 -36.8125 C 19.625 -36.3125 19.722656 -36.015625 19.921875 -35.921875 C 20.128906 -35.828125 20.550781 -35.78125 21.1875 -35.78125 L 46.65625 -35.78125 C 47.289062 -35.78125 47.707031 -35.828125 47.90625 -35.921875 C 48.113281 -36.015625 48.21875 -36.3125 48.21875 -36.8125 L 48.21875 -39.25 C 48.21875 -39.75 48.113281 -40.039062 47.90625 -40.125 C 47.707031 -40.21875 47.289062 -40.265625 46.65625 -40.265625 L 21.1875 -40.265625 C 20.550781 -40.265625 20.128906 -40.21875 19.921875 -40.125 C 19.722656 -40.039062 19.625 -39.75 19.625 -39.25 Z M 19.625 -36.8125 "/></g></g></g><g fill="#ff3d39" fill-opacity="1"><g transform="translate(494.865601, 54.373121)"><g/></g></g><g fill="#ff3d39" fill-opacity="1"><g transform="translate(513.8805, 54.373121)"><g><path d="M 2.984375 -46.921875 L 42.171875 -46.921875 L 42.171875 -40.265625 L 29.75 -40.265625 L 29.75 -2.984375 L 34.21875 1.09375 L 42.109375 1.09375 L 42.109375 7.734375 L 26.546875 7.734375 L 22.609375 3.328125 L 18.734375 7.734375 L 3.125 7.734375 L 3.125 1.09375 L 11.0625 1.09375 L 15.546875 -2.984375 L 15.546875 -40.265625 L 2.984375 -40.265625 Z M 48.625 -47.609375 L 62.8125 -47.609375 L 62.8125 7.734375 L 48.625 7.734375 Z M 48.625 -47.609375 "/></g></g></g><g fill="#ff3d39" fill-opacity="1"><g transform="translate(581.790852, 54.373121)"><g><path d="M 51.34375 -22.40625 L 47.40625 -22.40625 L 47.40625 7.734375 L 34.5625 7.734375 L 34.5625 -47.609375 L 47.40625 -47.609375 L 47.40625 -29.0625 L 51.34375 -29.0625 L 51.34375 -47.609375 L 64.171875 -47.609375 L 64.171875 7.734375 L 51.34375 7.734375 Z M 13.921875 -27.703125 L 19.015625 -27.703125 L 19.015625 -46.921875 L 30.484375 -46.921875 L 30.484375 7.734375 L 7.609375 7.734375 L 2.4375 3.1875 L 2.4375 -46.921875 L 13.921875 -46.921875 Z M 19.015625 -21.046875 L 13.921875 -21.046875 L 13.921875 1.09375 L 19.015625 1.09375 Z M 19.015625 -21.046875 "/></g></g></g><g fill="#ff3d39" fill-opacity="1"><g transform="translate(649.701205, 54.373121)"><g><path d="M 39.3125 -0.34375 C 39.3125 1.101562 39.234375 2.347656 39.078125 3.390625 C 38.921875 4.429688 38.570312 5.269531 38.03125 5.90625 C 37.488281 6.539062 36.679688 7.003906 35.609375 7.296875 C 34.546875 7.585938 33.132812 7.734375 31.375 7.734375 L 12.421875 7.734375 C 10.660156 7.734375 9.25 7.585938 8.1875 7.296875 C 7.125 7.003906 6.316406 6.539062 5.765625 5.90625 C 5.222656 5.269531 4.875 4.429688 4.71875 3.390625 C 4.5625 2.347656 4.484375 1.101562 4.484375 -0.34375 L 4.484375 -22.546875 C 4.484375 -23.992188 4.5625 -25.226562 4.71875 -26.25 C 4.875 -27.269531 5.222656 -28.109375 5.765625 -28.765625 C 6.316406 -29.421875 7.125 -29.894531 8.1875 -30.1875 C 9.25 -30.476562 10.660156 -30.625 12.421875 -30.625 L 31.375 -30.625 C 33.132812 -30.625 34.546875 -30.476562 35.609375 -30.1875 C 36.679688 -29.894531 37.488281 -29.421875 38.03125 -28.765625 C 38.570312 -28.109375 38.921875 -27.269531 39.078125 -26.25 C 39.234375 -25.226562 39.3125 -23.992188 39.3125 -22.546875 Z M 45.21875 -47.609375 L 59.421875 -47.609375 L 59.421875 -25.734375 L 65.671875 -25.734375 L 65.671875 -19.078125 L 59.421875 -19.078125 L 59.421875 7.734375 L 45.21875 7.734375 Z M 1.625 -41.015625 L 14.796875 -41.015625 L 14.796875 -48.953125 L 29 -48.953125 L 29 -41.015625 L 42.171875 -41.015625 L 42.171875 -34.359375 L 1.625 -34.359375 Z M 17.3125 -0.609375 C 17.3125 0.0234375 17.410156 0.46875 17.609375 0.71875 C 17.816406 0.96875 18.238281 1.09375 18.875 1.09375 L 24.921875 1.09375 C 25.554688 1.09375 25.972656 0.96875 26.171875 0.71875 C 26.378906 0.46875 26.484375 0.0234375 26.484375 -0.609375 L 26.484375 -22.265625 C 26.484375 -22.898438 26.378906 -23.34375 26.171875 -23.59375 C 25.972656 -23.84375 25.554688 -23.96875 24.921875 -23.96875 L 18.875 -23.96875 C 18.238281 -23.96875 17.816406 -23.84375 17.609375 -23.59375 C 17.410156 -23.34375 17.3125 -22.898438 17.3125 -22.265625 Z M 17.3125 -0.609375 "/></g></g></g><g fill="#ff3d39" fill-opacity="1"><g transform="translate(717.611558, 54.373121)"><g><path d="M 39.3125 7.734375 L 10.734375 7.734375 L 3.125 0.140625 L 3.125 -23.625 L 24.453125 -23.625 L 24.453125 -40.265625 L 3.125 -40.265625 L 3.125 -46.921875 L 38.640625 -46.921875 L 38.640625 -16.96875 L 17.3125 -16.96875 L 17.3125 1.09375 L 39.3125 1.09375 Z M 45.21875 -47.609375 L 59.421875 -47.609375 L 59.421875 -25.734375 L 65.671875 -25.734375 L 65.671875 -19.078125 L 59.421875 -19.078125 L 59.421875 7.734375 L 45.21875 7.734375 Z M 45.21875 -47.609375 "/></g></g></g></g></g></svg>